<?xml version="1.0" encoding="iso-8859-1"?>
<!-- Generator: Adobe Illustrator 19.0.0, SVG Export Plug-In . SVG Version: 6.00 Build 0)  -->
<svg version="1.1" id="Layer_1" xmlns="http://www.w3.org/2000/svg" xmlns:xlink="http://www.w3.org/1999/xlink" x="0px" y="0px"
	 viewBox="0 0 460 460" style="enable-background:new 0 0 460 460;" xml:space="preserve" width="32" height="32">
<g id="XMLID_1507_">
	<path id="XMLID_1131_" style="fill:#FCDE8B;" d="M3.162,284.927l125.026-62.513l109.398,109.398l-62.513,125.026
		c-12.947,12.947-61.926-15.041-109.398-62.513S-9.785,297.874,3.162,284.927z"/>
	<path id="XMLID_1126_" style="fill:#FFEAB6;" d="M70.256,303.789l91.686-45.843l40.113,40.113l-45.843,91.686
		c-7.582,7.582-32.015-3.981-59.28-26.676C74.237,335.804,62.674,311.371,70.256,303.789z"/>
	<path id="XMLID_1108_" style="fill:#97968F;" d="M96.931,206.786l39.071-39.071c17.263-17.263,45.251-17.263,62.513,0l0,0
		L378.26,2.856c4.367-3.951,11.064-3.783,15.228,0.38l63.275,63.275c4.164,4.164,4.331,10.862,0.38,15.228L292.285,261.485l0,0
		c17.263,17.263,17.263,45.251,0,62.513l-39.071,39.071c-8.631,8.631-22.625,8.631-31.257,0L96.931,238.042
		C88.3,229.411,88.3,215.417,96.931,206.786z"/>
	<path id="XMLID_1105_" style="fill:#4C4C4B;" d="M323.542,136.458L323.542,136.458c8.631,8.631,8.631,22.625,0,31.257
		L300.1,191.157c-8.631,8.631-22.625,8.631-31.257,0l0,0c-8.631-8.631-8.631-22.625,0-31.257l23.442-23.442
		C300.916,127.827,314.911,127.827,323.542,136.458z"/>
	<path id="XMLID_1104_" style="fill:#CECCC0;" d="M268.843,159.901c8.631-8.631,22.625-8.631,31.257,0
		c8.631,8.631,8.631,22.625,0,31.257c-8.631,8.631-22.625,8.631-31.257,0C260.211,182.526,260.211,168.532,268.843,159.901z"/>
	<path id="XMLID_1099_" style="fill:#686765;" d="M198.515,167.715L198.515,167.715l93.77,93.77l0,0
		c17.263,17.263,17.263,45.251,0,62.513l-39.071,39.071c-8.631,8.631-22.625,8.631-31.257,0L96.931,238.042
		c-8.631-8.631-8.631-22.625,0-31.257l39.071-39.071C153.265,150.452,181.253,150.452,198.515,167.715z"/>
	<path id="XMLID_476_" style="fill:#7E7C7A;" d="M217.269,186.469L217.269,186.469l56.262,56.262l0,0
		c10.358,10.358,4.76,32.748-12.503,50.011l-23.442,23.443c-17.263,17.263-39.653,22.86-50.01,12.503l-56.262-56.262
		c-10.358-10.358-4.76-32.748,12.503-50.011l23.443-23.443C184.521,181.709,206.912,176.111,217.269,186.469z"/>
</g>
<g>
</g>
<g>
</g>
<g>
</g>
<g>
</g>
<g>
</g>
<g>
</g>
<g>
</g>
<g>
</g>
<g>
</g>
<g>
</g>
<g>
</g>
<g>
</g>
<g>
</g>
<g>
</g>
<g>
</g>
</svg>
