<svg xmlns="http://www.w3.org/2000/svg" viewBox="0 0 460 460" width="32" height="32"><path d="M3.162 284.927l125.026-62.513 109.398 109.398-62.513 125.026c-12.947 12.947-61.926-15.041-109.398-62.513s-75.46-96.451-62.513-109.398z" fill="#fcde8b"/><path d="M70.256 303.789l91.686-45.843 40.113 40.113-45.843 91.686c-7.582 7.582-32.015-3.981-59.28-26.676-22.695-27.265-34.258-51.698-26.676-59.28z" fill="#ffeab6"/><path d="M96.931 206.786l39.071-39.071c17.263-17.263 45.251-17.263 62.513 0L378.26 2.856a11.051 11.051 0 0115.228.38l63.275 63.275a11.05 11.05 0 01.38 15.228L292.285 261.485c17.263 17.263 17.263 45.251 0 62.513l-39.071 39.071c-8.631 8.631-22.625 8.631-31.257 0L96.931 238.042c-8.631-8.631-8.631-22.625 0-31.256z" fill="#97968f"/><path d="M323.542 136.458c8.631 8.631 8.631 22.625 0 31.257L300.1 191.157c-8.631 8.631-22.625 8.631-31.257 0-8.631-8.631-8.631-22.625 0-31.257l23.442-23.442c8.631-8.631 22.626-8.631 31.257 0z" fill="#4c4c4b"/><path d="M268.843 159.901c8.631-8.631 22.625-8.631 31.257 0 8.631 8.631 8.631 22.625 0 31.257-8.631 8.631-22.625 8.631-31.257 0-8.632-8.632-8.632-22.626 0-31.257z" fill="#ceccc0"/><path d="M198.515 167.715l93.77 93.77c17.263 17.263 17.263 45.251 0 62.513l-39.071 39.071c-8.631 8.631-22.625 8.631-31.257 0L96.931 238.042c-8.631-8.631-8.631-22.625 0-31.257l39.071-39.071c17.263-17.262 45.251-17.262 62.513.001z" fill="#686765"/><path d="M217.269 186.469l56.262 56.262c10.358 10.358 4.76 32.748-12.503 50.011l-23.442 23.443c-17.263 17.263-39.653 22.86-50.01 12.503l-56.262-56.262c-10.358-10.358-4.76-32.748 12.503-50.011l23.443-23.443c17.261-17.263 39.652-22.861 50.009-12.503z" fill="#7e7c7a"/></svg>